<?xml version="1.0" encoding="UTF-8"?> <svg xmlns="http://www.w3.org/2000/svg" id="icon" viewBox="0 0 1000 1000"><path d="M955.82,270.87,729.55,44.6,107.64,666.51,43.57,900.4c-4,14.16,1.13,30.1,13.74,42.71S85.86,960.83,100,956.85l233.89-64.07Zm-164.7-88.34,26.77,26.77L273.63,753.56c-5.61.67-12.89-3.08-18.33-8.44s-9.11-12.72-8.44-18.33Zm-58.74-58.74,24.8,24.8L212.83,692.93c-10.65.71-25.93-3.52-39-10.64ZM176.3,879.5l-55.38-55.38,29.32-108.27c17.26,9.65,41.36,16.36,56,16.91,1.27,15.08,9.28,31.17,19.75,41.71s26.62,18.48,41.71,19.75c.55,14.6,7.26,38.7,16.91,56Zm141.83-53c-7.12-13-11.35-28.3-10.65-38.95L851.83,243.24l24.8,24.8Z"></path></svg> 